<?xml version="1.0" encoding="utf-8"?>
<svg version="1.1" id="Layer_1" xmlns="http://www.w3.org/2000/svg" xmlns:xlink="http://www.w3.org/1999/xlink" x="0px" y="0px"
	 viewBox="0 0 490.1 539" style="enable-background:new 0 0 490.1 539;" xml:space="preserve">
<style type="text/css">
	.st0{fill:#FFFFFF;}
</style>
<path class="st0" d="M276.7,234c0.1,67.7,0.1,143,0.2,210.7c0,8.2-1.7,15.7-6.8,22.2c-8.7,11.3-24,15-37.4,8.9
	c-3.6-1.6-7-3.7-10.4-5.7C152.5,430,82.8,389.7,13.1,349.6c-3.1-1.8-5.9-4.1-9.5-4.8C1,346.4,1.9,349,2,351.1
	c0.3,8.2,0.5,16.5,1.3,24.7c2.6,24.8,13.9,44.7,35.6,57.4c53.8,31.5,107.8,62.5,161.9,93.5c20.3,11.6,42.4,15.6,64.9,9.2
	c41.5-11.8,69.2-42.9,70.3-87.2c0.5-21.4,0.2-42.8,0.2-64.3c0.1-61.7,0.4-122.7,0.1-184.4C315.4,212,277,233.8,276.7,234z"/>
<path class="st0" d="M75.9,208.4c-15-9.1-20.1-24.8-13.7-40c3.2-7.6,9.3-12.6,16.3-16.6c28.9-16.6,57.7-33.3,86.5-49.9
	c43.1-24.9,86.2-49.8,129.2-74.8c2.2-1.3,4.9-2,7.1-5.5c-12.3-6.9-23.8-14.2-36.8-18.1c-21.3-6.4-41.7-4.1-61,7.1
	c-43.7,25.2-87.4,50.4-131,75.6c-9.4,5.4-19,10.7-28.2,16.4c-52.6,32.3-59.5,103.9-14.2,145.7c5.3,4.9,11.3,9.1,17.6,12.7
	c68.5,39.6,137.1,79.2,205.6,118.7c2.2,1.3,4.3,3,7.1,3.3c2.9-1.3,1.9-3.9,2-6c0.2-17.8,0.1-35.6,0.6-53.4c0.1-5.4-1.8-8.3-6.4-10.9
	c-21.3-12-42.3-24.3-63.4-36.5C190.1,274.4,88,215.8,75.9,208.4z"/>
<path class="st0" d="M378.4,92.2c-10.4,2.3-19.9,6.8-29.1,12.1c-68.2,39.5-141.2,81.5-209.3,121.1c14,7.7,54.6,31.3,58.3,33.4
	C254.3,226.5,371,160.4,380,155.3c25.4-14.4,49.8-0.5,50,28.7c0.3,61.6,0.1,123.3,0.1,184.9c0,21.4,0.1,42.8,0.2,64.3
	c0,2.9,0.3,5.8,0.4,9.7c25.8-13.9,48.5-29.2,56.6-58.9c1.7-6.1,2.7-12.2,2.7-18.5c0-62,0.7-123.9-0.2-185.9
	C488.8,121,435.4,79.6,378.4,92.2z"/>
<path class="st0" d="M2.7,251.3c-2,1.3-1.5,3.1-1.4,4.7c0.3,20.1,0.8,40.2,0.8,60.2c0,5.3,1.9,8.3,6.5,10.9
	c76.6,43.9,153.1,88,229.6,132c11.6,6.7,21,1.1,21.2-12.4c0.2-12.5-0.2-25,0.1-37.5c0.1-5.2-2.2-7.6-6.3-9.9
	c-15.8-8.9-31.4-18.1-47.1-27.1c-45.4-26.2-90.7-52.4-136.1-78.6c-21.1-12.2-42.5-23.9-61.8-39C6.6,253.2,4.9,251.5,2.7,251.3z"/>
<path class="st0" d="M374,62.7c-15.2-8.5-30.7-16.6-45.8-25.5c-6.1-3.6-10.8-3.7-17,0c-54,31.6-108.2,62.8-162.4,94.1
	c-20,11.5-39.9,23.1-59.8,34.7c-2.3,1.3-4.6,2.5-6.8,4.1c-8,5.9-8.7,16.2-0.4,21.6c12.4,8.1,25.5,15.1,38.3,22.5
	c2,1.1,3.8,0.7,5.6-0.2c2-1.1,4-2.3,6-3.4c69.2-40.1,138.5-80.2,207.6-120.5c10.9-6.3,22.5-11,33.8-16.3c2.9-1.4,6.3-2.1,9.1-5.1
	C380.1,65.1,376.8,64.2,374,62.7z"/>
<path class="st0" d="M349.6,488.5c4.6-0.3,6.6-2.2,8.9-3.5c15.6-9.2,31.1-18.6,46.9-27.5c5.8-3.2,8.2-6.9,8.1-13.8
	c-0.5-32.3-0.3-64.5-0.3-96.8c-0.1-53.3-0.1-106.7-0.2-160c0-1.6,0-3.3,0-4.9c-0.5-13.9-9.8-19.2-22.1-12.4
	c-10.1,5.6-19.8,11.8-30.1,17.1c-5.4,2.8-7.2,6.3-7.2,12.3c0.2,62.9,0.2,125.8,0,188.7C353.4,421.1,355.2,454.7,349.6,488.5z"/>
</svg>
